<svg xmlns="http://www.w3.org/2000/svg" xmlns:xlink="http://www.w3.org/1999/xlink" viewBox="0 0 529.03 88.58"><defs><style>.cls-1{fill:url(#New_Gradient_Swatch_1);}.cls-2{fill:#231f20;}.cls-3{fill:#fff;}</style><linearGradient id="New_Gradient_Swatch_1" x1="-6227.32" y1="-2845.91" x2="-6522.64" y2="-2845.91" gradientTransform="translate(6756.23 2875.51)" gradientUnits="userSpaceOnUse"><stop offset="0" stop-color="#912f46"/><stop offset="1" stop-color="#28336d"/></linearGradient></defs><title>Layer 1</title><g id="Layer_2" data-name="Layer 2"><g id="Layer_1-2" data-name="Layer 1"><rect class="cls-1" x="233.59" width="295.32" height="59.21" transform="translate(762.51 59.21) rotate(-180)"/><path class="cls-2" d="M11.09,18.58,11,20.32a24.09,24.09,0,0,0-4.28-.49c-3.45,0-4.83,1.31-4.83,4.77V34c0,3.26,1.38,4.71,4.87,4.71A21.62,21.62,0,0,0,11,38.19L11.09,40a24.45,24.45,0,0,1-4.35.49C1.81,40.45,0,38.25,0,33.84V24.76c0-4.57,1.81-6.64,6.74-6.64A27.55,27.55,0,0,1,11.09,18.58Z"/><path class="cls-2" d="M33.14,20.26H24.32v8h8.16V30H24.32v8.36h8.82v1.74H22.41V18.51H33.14Z"/><path class="cls-2" d="M46.67,20.81V40.06H44.8V18.51h3l8.88,19.15V18.51h1.88V40.06H55.69Z"/><path class="cls-2" d="M83.86,20.26H77.38v19.8H75.47V20.26H69V18.51H83.86Z"/><path class="cls-2" d="M105,20.26H96.18v8h8.15V30H96.18v8.36H105v1.74H94.27V18.51H105Z"/><path class="cls-2" d="M129.45,23.91v.79a5.47,5.47,0,0,1-4,5.59L131,40.06h-2.14l-5.3-9.38a28.35,28.35,0,0,1-5,0v9.41h-1.91V18.28c1.94-.07,3.68-.16,5.49-.16C127.24,18.12,129.45,20.32,129.45,23.91Zm-10.89-4V29c1.44.1,2.66.17,3.62.17,3.75,0,5.36-1.58,5.36-4.54V24c0-2.83-1.65-4.24-5.46-4.24C121.35,19.8,119.48,19.86,118.56,19.89Z"/><path class="cls-2" d="M165.42,20.26h-8.81v8h6.67V30h-6.67v10.1H154.7V18.51h10.72Z"/><path class="cls-2" d="M189.05,25.19v8.19c0,4.57-2.1,7.07-6.94,7.07s-6.94-2.5-6.94-7.07V25.19c0-4.44,1.94-7.07,6.94-7.07S189.05,20.75,189.05,25.19Zm-12-.33v8.82c0,3.39,1.68,5.06,5,5.06s5-1.67,5-5.06V24.89c0-3.35-1.65-5.06-5-5.06S177.08,21.51,177.08,24.86Z"/><path class="cls-2" d="M213.68,23.91v.79a5.47,5.47,0,0,1-4.05,5.59l5.56,9.77h-2.14l-5.3-9.38a28.35,28.35,0,0,1-5,0v9.41h-1.91V18.28c1.94-.07,3.68-.16,5.49-.16C211.47,18.12,213.68,20.32,213.68,23.91Zm-10.89-4V29c1.44.1,2.66.17,3.61.17,3.76,0,5.37-1.58,5.37-4.54V24c0-2.83-1.65-4.24-5.46-4.24C205.58,19.8,203.71,19.86,202.79,19.89Z"/><path class="cls-3" d="M268.34,40.06h-4.21L263,35.55h-6.87L255,40.06h-4l6.38-21.55H262ZM256.9,32.2h5.29l-2.63-10.4Z"/><path class="cls-3" d="M287.14,18.64l-.06,3.59a31.72,31.72,0,0,0-4.84-.56c-2.07,0-2.83.82-2.83,2.3v.69c0,1.19.36,1.65,2.07,2.21l2.9.95c3.06,1,4.21,2.57,4.21,5.89v.62c0,4-2,6.12-7.5,6.12a28.85,28.85,0,0,1-5.07-.69l0-3.65a24.16,24.16,0,0,0,4.93.73c2.76,0,3.68-.86,3.68-2.37v-.86c0-1.15-.46-1.74-1.74-2.17l-3.19-1.05c-3.19-1.05-4.28-2.47-4.28-5.86V24.2c0-3.91,2-6.08,6.68-6.08A34.27,34.27,0,0,1,287.14,18.64Z"/><path class="cls-3" d="M311.86,22.13h-5.92V40.06H302V22.13H296.1V18.51h15.76Z"/><path class="cls-3" d="M334.83,24.17V25a5.71,5.71,0,0,1-3.65,5.39l5.33,9.71h-4.34l-4.67-8.69a15.68,15.68,0,0,1-2.54,0v8.72H321V18.31c1.9-.06,4.47-.19,6-.19C332.53,18.12,334.83,20.49,334.83,24.17Zm-9.9-2.53v6.28a18.45,18.45,0,0,0,2.14.13c2.7,0,3.81-1.18,3.81-3.12V24.4c0-1.88-1.11-2.83-3.84-2.83C326.51,21.57,325.59,21.61,324.93,21.64Z"/><path class="cls-3" d="M359.32,25.39v7.79c0,4.54-2.2,7.27-7.43,7.27s-7.41-2.73-7.41-7.27V25.39c0-4.61,2.24-7.27,7.41-7.27S359.32,20.78,359.32,25.39Zm-10.92-.3v8.36c0,2.27,1.18,3.45,3.49,3.45s3.48-1.18,3.48-3.45V25.13c0-2.24-1.18-3.46-3.48-3.46S348.4,22.85,348.4,25.09Z"/><path class="cls-3" d="M383.32,24.4v.73c0,4.17-2.47,6.7-7.47,6.7a15.61,15.61,0,0,1-2.47-.22v8.45h-3.95V18.31c1.65-.06,3.79-.16,6-.19C380.85,18.08,383.32,20.55,383.32,24.4Zm-10-2.79v6.54a18.07,18.07,0,0,0,2.2.2c2.57,0,3.82-1.15,3.82-3.36V24.5c0-1.91-1.15-3-3.95-3C374.44,21.54,373.91,21.57,373.35,21.61Z"/><path class="cls-3" d="M407.08,40.06h-3.91V30.75h-6.78v9.31h-3.95V18.51h3.95V27.2h6.78V18.51h3.91Z"/><path class="cls-3" d="M425.91,32.62v7.44h-4V32.62l-6.22-14.11h4.45L424,28.81l3.82-10.3h4.34Z"/><path class="cls-3" d="M451.25,18.64l-.06,3.59a31.72,31.72,0,0,0-4.84-.56c-2.07,0-2.83.82-2.83,2.3v.69c0,1.19.37,1.65,2.08,2.21l2.89.95c3.06,1,4.21,2.57,4.21,5.89v.62c0,4-2,6.12-7.5,6.12a29,29,0,0,1-5.07-.69l0-3.65a24.26,24.26,0,0,0,4.93.73c2.77,0,3.69-.86,3.69-2.37v-.86c0-1.15-.46-1.74-1.75-2.17l-3.19-1.05c-3.19-1.05-4.28-2.47-4.28-5.86V24.2c0-3.91,2-6.08,6.68-6.08A34.27,34.27,0,0,1,451.25,18.64Z"/><path class="cls-3" d="M466,40.06h-4V18.51h4Z"/><path class="cls-3" d="M488.25,18.68l-.07,3.52a26.45,26.45,0,0,0-4.47-.53c-2.8,0-3.72.89-3.72,3.55v8.1c0,2.63,1,3.52,3.72,3.52a22.77,22.77,0,0,0,4.47-.6l.07,3.62a29.62,29.62,0,0,1-4.93.59c-5.4,0-7.27-2.3-7.27-6.87V25c0-4.64,1.94-6.87,7.27-6.87A33.34,33.34,0,0,1,488.25,18.68Z"/><path class="cls-3" d="M508.86,18.64l-.07,3.59a31.72,31.72,0,0,0-4.84-.56c-2.07,0-2.82.82-2.82,2.3v.69c0,1.19.36,1.65,2.07,2.21l2.89.95c3.06,1,4.21,2.57,4.21,5.89v.62c0,4-2,6.12-7.5,6.12a28.88,28.88,0,0,1-5.06-.69l0-3.65a24.36,24.36,0,0,0,4.93.73c2.77,0,3.69-.86,3.69-2.37v-.86c0-1.15-.46-1.74-1.74-2.17l-3.2-1.05c-3.19-1.05-4.27-2.47-4.27-5.86V24.2c0-3.91,2-6.08,6.68-6.08A34.55,34.55,0,0,1,508.86,18.64Z"/><path class="cls-2" d="M233.63,75h1.55v5.86h7.1V75h1.55V88.33h-1.55V82.24h-7.1v6.09h-1.55Z"/><path class="cls-2" d="M252.43,84l-1.6,4.33h-1.57l5-13.36h1.56l5,13.36h-1.56L257.66,84Zm2.62-7.33-2.14,6h4.29Z"/><path class="cls-2" d="M266.29,75h3.39c2.73,0,4.17,1.37,4.17,3.7a3.51,3.51,0,0,1-2.33,3.53l3.32,6.13h-1.72l-3-5.8h-2.27v5.8h-1.54Zm3.39,6.2a2.22,2.22,0,0,0,2.54-2.48c0-1.41-.74-2.35-2.63-2.35h-1.76v4.83Z"/><path class="cls-2" d="M283.79,88.33,278.71,75h1.7l4.2,11.53L288.83,75h1.69l-5.07,13.36Z"/><path class="cls-2" d="M296.46,84l-1.6,4.33h-1.57l5-13.36h1.57l5,13.36h-1.57L301.69,84Zm2.61-7.33-2.13,6h4.29Z"/><path class="cls-2" d="M310.31,75h3.4c2.73,0,4.16,1.37,4.16,3.7a3.5,3.5,0,0,1-2.33,3.53l3.32,6.13h-1.71l-3-5.8h-2.27v5.8h-1.55Zm3.4,6.2a2.23,2.23,0,0,0,2.54-2.48c0-1.41-.75-2.35-2.64-2.35h-1.75v4.83Z"/><path class="cls-2" d="M324.45,75h2.75c4.56,0,7.16,2.5,7.16,6.68,0,4.43-2.69,6.68-7.16,6.68h-2.75Zm3.06,12c3.2,0,5.26-1.82,5.26-5.31s-2.06-5.29-5.26-5.29H326V87Z"/><path class="cls-2" d="M356.59,87.09a5.45,5.45,0,0,1-3.89,1.49c-2.9,0-4.64-1.76-4.64-4A4.11,4.11,0,0,1,350.41,81a4.1,4.1,0,0,1-1.45-3,3.36,3.36,0,0,1,3.64-3.34c2.33,0,3.72,1.37,3.72,3.36,0,1.66-1.16,2.79-3,3.82l3.17,3a5.48,5.48,0,0,0,.63-3h1.45a7,7,0,0,1-1,4.07l1.4,1.39-1.09,1Zm-1-1-4.18-4a2.79,2.79,0,0,0-1.83,2.54c0,1.68,1.43,2.65,3.13,2.65A4.12,4.12,0,0,0,355.58,86Zm-3.23-5c1.4-.71,2.54-1.68,2.54-2.92a2.25,2.25,0,0,0-4.5,0C350.39,79.32,351.34,80.18,352.35,81Z"/><path class="cls-2" d="M373.53,85.07a2.9,2.9,0,0,0,2.93,2.08,2.18,2.18,0,0,0,2.42-2.22c0-3.34-6.26-2.48-6.26-6.79,0-1.91,1.45-3.42,3.82-3.42a3.91,3.91,0,0,1,3.78,2.56l-1.3.53a2.69,2.69,0,0,0-2.5-1.68,2,2,0,0,0-2.25,2c0,3,6.27,2.42,6.27,6.7a3.72,3.72,0,0,1-4,3.74,4.14,4.14,0,0,1-4.18-2.94Z"/><path class="cls-2" d="M393.19,85.37,398,75h2V88.33h-1.49V77.2L394,87.11h-1.53l-4.52-9.91V88.33h-1.49V75h2Z"/><path class="cls-2" d="M406.68,75h1.55V88.33h-1.55Z"/><path class="cls-2" d="M417.45,76.38h-3.61V75h8.74v1.41H419v12h-1.54Z"/><path class="cls-2" d="M428.4,75h1.54v5.86h7.11V75h1.54V88.33h-1.54V82.24h-7.11v6.09H428.4Z"/><path class="cls-2" d="M445.77,85.07a2.88,2.88,0,0,0,2.92,2.08,2.18,2.18,0,0,0,2.42-2.22c0-3.34-6.26-2.48-6.26-6.79,0-1.91,1.45-3.42,3.82-3.42a3.91,3.91,0,0,1,3.78,2.56l-1.3.53a2.69,2.69,0,0,0-2.5-1.68,2,2,0,0,0-2.25,2c0,3,6.28,2.42,6.28,6.7a3.73,3.73,0,0,1-4.05,3.74,4.14,4.14,0,0,1-4.18-2.94Z"/><path class="cls-2" d="M464.7,74.72a6.93,6.93,0,1,1-6.82,6.93A6.75,6.75,0,0,1,464.7,74.72Zm0,12.41a5.49,5.49,0,1,0-5.21-5.48A5.21,5.21,0,0,0,464.7,87.13Z"/><path class="cls-2" d="M477.44,75H479l7.37,10.92V75h1.52V88.33h-1.52L479,77.45V88.33h-1.55Z"/><path class="cls-2" d="M494.6,75h1.55V88.33H494.6Z"/><path class="cls-2" d="M504.75,84l-1.6,4.33h-1.57l5-13.36h1.57l5,13.36h-1.56L510,84Zm2.62-7.33-2.14,6h4.29Z"/><path class="cls-2" d="M518.59,75h1.54l7.37,10.92V75H529V88.33H527.5l-7.37-10.88V88.33h-1.54Z"/></g></g></svg>