<?xml version="1.0" encoding="utf-8"?>
<!-- Generator: Adobe Illustrator 18.1.0, SVG Export Plug-In . SVG Version: 6.00 Build 0)  -->
<svg version="1.1" id="Layer_1" xmlns="http://www.w3.org/2000/svg" xmlns:xlink="http://www.w3.org/1999/xlink" x="0px" y="0px"
	 viewBox="0 0 1600 900" enable-background="new 0 0 1600 900" xml:space="preserve">
<polygon fill="none" stroke="#FFFFFF" stroke-width="3" stroke-miterlimit="10" points="71.7,112.9 -0.8,112.9 -37,51.1 -0.7,-10.5 
	71.8,-10.4 108,51.3 "/>
<polygon fill="none" stroke="#FFFFFF" stroke-width="3" stroke-miterlimit="10" points="179.9,176.2 107.4,176.2 71.2,114.4 
	107.6,52.8 180,52.9 216.2,114.6 "/>
<polygon fill="none" stroke="#FFFFFF" stroke-width="3" stroke-miterlimit="10" points="71.7,238 -0.8,237.9 -37,176.1 -0.7,114.5 
	71.8,114.6 108,176.3 "/>
<polygon fill="none" stroke="#FFFFFF" stroke-width="3" stroke-miterlimit="10" points="1648.9,917 1579.3,916.9 1544.5,856.5 
	1579.4,796.2 1649.1,796.3 1683.8,856.7 "/>
<polygon fill="none" stroke="#FFFFFF" stroke-width="3" stroke-miterlimit="10" points="179.9,51.2 107.4,51.1 71.2,-10.6 
	107.6,-72.3 180,-72.2 216.2,-10.4 "/>
<polygon fill="none" stroke="#FFFFFF" stroke-width="3" stroke-miterlimit="10" points="288.9,238 216.4,237.9 180.2,176.2 
	216.5,114.5 289,114.6 325.2,176.3 "/>
<polygon fill="none" stroke="#FFFFFF" stroke-width="3" stroke-miterlimit="10" points="288.9,114.5 216.4,114.4 180.2,52.7 
	216.5,-9 289,-8.9 325.2,52.9 "/>
<polygon fill="none" stroke="#FFFFFF" stroke-width="3" stroke-miterlimit="10" points="1542.7,856.6 1473,856.5 1438.3,796.1 
	1473.2,735.8 1542.8,735.9 1577.6,796.3 "/>
<polygon fill="none" stroke="#FFFFFF" stroke-width="3" stroke-miterlimit="10" points="1542.7,977.3 1473,977.3 1438.3,916.9 
	1473.2,856.6 1542.8,856.7 1577.6,917 "/>
<polygon fill="none" stroke="#FFFFFF" stroke-width="3" stroke-miterlimit="10" points="396.6,52.8 324.1,52.7 288,-9.1 
	324.3,-70.7 396.8,-70.6 432.9,-8.9 "/>
<polygon fill="none" stroke="#FFFFFF" stroke-width="3" stroke-miterlimit="10" points="1436.8,917 1367.1,916.9 1332.4,856.5 
	1367.3,796.2 1437,796.3 1471.7,856.7 "/>
<polygon fill="none" stroke="#FFFFFF" stroke-width="3" stroke-miterlimit="10" points="1542.7,735.8 1473,735.8 1438.3,675.4 
	1473.2,615.1 1542.8,615.2 1577.6,675.6 "/>
<polygon fill="none" stroke="#FFFFFF" stroke-width="3" stroke-miterlimit="10" points="1648.9,796.2 1579.3,796.1 1544.5,735.8 
	1579.4,675.5 1649.1,675.6 1683.8,735.9 "/>
<polygon fill="none" stroke="#FFFFFF" stroke-width="3" stroke-miterlimit="10" points="1436.8,675.5 1367.1,675.4 1332.4,615 
	1367.3,554.7 1437,554.8 1471.7,615.2 "/>
<polygon fill="none" stroke="#FFFFFF" stroke-width="3" stroke-miterlimit="10" points="1648.9,675.5 1579.3,675.4 1544.5,615 
	1579.4,554.7 1649.1,554.8 1683.8,615.2 "/>
<polygon fill="none" stroke="#FFFFFF" stroke-width="3" stroke-miterlimit="10" points="1332.7,977.3 1263,977.3 1228.3,916.9 
	1263.2,856.6 1332.8,856.7 1367.6,917 "/>
<polygon fill="none" stroke="#FFFFFF" stroke-width="3" stroke-miterlimit="10" points="1332.7,856.6 1263,856.5 1228.3,796.1 
	1263.2,735.8 1332.8,735.9 1367.6,796.3 "/>
<polygon fill="none" stroke="#FFFFFF" stroke-width="3" stroke-miterlimit="10" points="1436.8,796.2 1367.1,796.1 1332.4,735.8 
	1367.3,675.5 1437,675.6 1471.7,735.9 "/>
<polygon fill="none" stroke="#FFFFFF" stroke-width="3" stroke-miterlimit="10" points="1542.7,615.1 1473,615 1438.3,554.7 
	1473.2,494.4 1542.8,494.4 1577.6,554.8 "/>
<polygon fill="none" stroke="#FFFFFF" stroke-width="3" stroke-miterlimit="10" points="179.9,299.7 107.4,299.6 71.2,237.9 
	107.6,176.2 180,176.3 216.2,238.1 "/>
<polygon fill="none" stroke="#FFFFFF" stroke-width="3" stroke-miterlimit="10" points="1228,917 1158.3,916.9 1123.6,856.5 
	1158.5,796.2 1228.2,796.3 1262.9,856.7 "/>
<polygon fill="none" stroke="#FFFFFF" stroke-width="3" stroke-miterlimit="10" points="71.7,361.4 -0.8,361.4 -37,299.6 -0.7,238 
	71.8,238.1 108,299.8 "/>
<polygon fill="none" stroke="#FFFFFF" stroke-width="3" stroke-miterlimit="10" points="71.7,484.9 -0.8,484.8 -37,423.1 
	-0.7,361.4 71.8,361.5 108,423.3 "/>
<polygon fill="none" stroke="#FFFFFF" stroke-width="3" stroke-miterlimit="10" points="1122.4,979.7 1049.9,979.6 1013.7,917.9 
	1050,856.2 1122.5,856.3 1158.7,918.1 "/>
<polygon fill="none" stroke="#FFFFFF" stroke-width="3" stroke-miterlimit="10" points="1652.1,556.1 1579.7,556 1543.5,494.3 
	1579.8,432.6 1652.3,432.7 1688.4,494.4 "/>
</svg>
