<?xml version="1.0" encoding="UTF-8" standalone="no"?>
<!-- Generator: Adobe Illustrator 20.1.0, SVG Export Plug-In . SVG Version: 6.00 Build 0)  -->

<svg
   xmlns:dc="http://purl.org/dc/elements/1.1/"
   xmlns:cc="http://creativecommons.org/ns#"
   xmlns:rdf="http://www.w3.org/1999/02/22-rdf-syntax-ns#"
   xmlns:svg="http://www.w3.org/2000/svg"
   xmlns="http://www.w3.org/2000/svg"
   xmlns:xlink="http://www.w3.org/1999/xlink"
   xmlns:sodipodi="http://sodipodi.sourceforge.net/DTD/sodipodi-0.dtd"
   xmlns:inkscape="http://www.inkscape.org/namespaces/inkscape"
   version="1.1"
   id="Layer_1"
   x="0px"
   y="0px"
   viewBox="0 0 337.325 127.97861"
   xml:space="preserve"
   inkscape:version="0.91 r13725"
   sodipodi:docname="LCO_logo_Color.svg"
   width="337.32501"
   height="127.97861"><metadata
     id="metadata89"><rdf:RDF><cc:Work
         rdf:about=""><dc:format>image/svg+xml</dc:format><dc:type
           rdf:resource="http://purl.org/dc/dcmitype/StillImage" /><dc:title></dc:title></cc:Work></rdf:RDF></metadata><defs
     id="defs87" /><sodipodi:namedview
     pagecolor="#ffffff"
     bordercolor="#666666"
     borderopacity="1"
     objecttolerance="10"
     gridtolerance="10"
     guidetolerance="10"
     inkscape:pageopacity="0"
     inkscape:pageshadow="2"
     inkscape:window-width="1250"
     inkscape:window-height="480"
     id="namedview85"
     showgrid="false"
     inkscape:zoom="0.8826368"
     inkscape:cx="275.78689"
     inkscape:cy="-27.552085"
     inkscape:window-x="49"
     inkscape:window-y="24"
     inkscape:window-maximized="0"
     inkscape:current-layer="Layer_1"
     fit-margin-top="0"
     fit-margin-left="0"
     fit-margin-right="0"
     fit-margin-bottom="0"
     showborder="true" /><style
     type="text/css"
     id="style3">
	.st0{fill:#231F20;stroke:#231F20;stroke-width:0.25;stroke-miterlimit:10;}
	.st1{fill:#231F20;}
	.st2{fill:#EE4023;}
	.st3{fill:#A5CD39;}
	.st4{clip-path:url(#SVGID_2_);}
	.st5{fill:#00ADEE;}
	.st6{fill:none;stroke:#FFFFFF;stroke-width:1.5;stroke-miterlimit:10;}
	.st7{clip-path:url(#SVGID_2_);fill:none;stroke:#FFFFFF;stroke-width:1.5;stroke-miterlimit:10;}
</style><g
     id="g5115"
     transform="translate(0,-77.910698)"><g
       transform="translate(-92.675,18.600002)"
       id="g5"><path
         style="fill:#231f20;stroke:#231f20;stroke-width:0.25;stroke-miterlimit:10"
         inkscape:connector-curvature="0"
         id="path7"
         d="m 92.8,152.2 2.1,0 0,16.3 10.2,0 0,1.9 -12.3,0 0,-18.2 z"
         class="st0" /><path
         style="fill:#231f20;stroke:#231f20;stroke-width:0.25;stroke-miterlimit:10"
         inkscape:connector-curvature="0"
         id="path9"
         d="m 107.6,166.5 0,0 c 0,-2.9 2.3,-4.4 5.7,-4.4 1.7,0 2.9,0.2 4.1,0.6 l 0,-0.4 c 0,-2.4 -1.5,-3.6 -4,-3.6 -1.6,0 -2.8,0.4 -4.1,1 l -0.6,-1.6 c 1.5,-0.7 2.9,-1.1 4.9,-1.1 1.9,0 3.4,0.5 4.3,1.5 0.9,0.9 1.4,2.2 1.4,4 l 0,8.2 -2,0 0,-2 c -0.9,1.2 -2.5,2.3 -4.8,2.3 -2.4,-0.3 -4.9,-1.8 -4.9,-4.5 z m 9.9,-1.1 0,-1.2 c -1,-0.3 -2.3,-0.6 -3.9,-0.6 -2.5,0 -3.9,1.1 -3.9,2.7 l 0,0.1 c 0,1.7 1.6,2.7 3.4,2.7 2.4,0 4.4,-1.5 4.4,-3.7 z"
         class="st0" /><path
         style="fill:#231f20;stroke:#231f20;stroke-width:0.25;stroke-miterlimit:10"
         inkscape:connector-curvature="0"
         id="path11"
         d="m 122.5,168.7 1,-1.4 c 1.5,1.1 3.1,1.7 4.7,1.7 1.6,0 2.8,-0.8 2.8,-2.1 l 0,-0.1 c 0,-1.4 -1.6,-1.9 -3.4,-2.4 -2.1,-0.6 -4.4,-1.3 -4.4,-3.8 l 0,-0.1 c 0,-2.3 1.9,-3.8 4.6,-3.8 1.6,0 3.5,0.6 4.8,1.5 l -0.9,1.5 c -1.2,-0.8 -2.7,-1.3 -4,-1.3 -1.6,0 -2.6,0.8 -2.6,2 l 0,0.1 c 0,1.3 1.7,1.8 3.5,2.3 2.1,0.6 4.3,1.4 4.3,3.8 l 0,0.1 c 0,2.5 -2.1,4 -4.8,4 -1.9,-0.1 -4.1,-0.8 -5.6,-2 z"
         class="st0" /><path
         style="fill:#231f20;stroke:#231f20;stroke-width:0.25;stroke-miterlimit:10"
         inkscape:connector-curvature="0"
         id="path13"
         d="m 140.8,161.3 0,0 c 0,-5.2 3.8,-9.5 9.2,-9.5 3.3,0 5.3,1.2 7.1,2.9 l -1.4,1.5 c -1.5,-1.5 -3.2,-2.5 -5.7,-2.5 -4,0 -7,3.3 -7,7.5 l 0,0.1 c 0,4.2 3,7.5 7,7.5 2.5,0 4.1,-1 5.9,-2.6 l 1.4,1.3 c -1.9,1.9 -4,3.2 -7.3,3.2 -5.3,0 -9.2,-4.1 -9.2,-9.4 z"
         class="st0" /><path
         style="fill:#231f20;stroke:#231f20;stroke-width:0.25;stroke-miterlimit:10"
         inkscape:connector-curvature="0"
         id="path15"
         d="m 160.3,165.3 0,-8.3 2,0 0,7.9 c 0,2.5 1.4,4.1 3.7,4.1 2.3,0 4,-1.7 4,-4.2 l 0,-7.7 2,0 0,13.4 -2,0 0,-2.5 c -0.9,1.5 -2.3,2.6 -4.6,2.6 -3.2,0.1 -5.1,-2.1 -5.1,-5.3 z"
         class="st0" /><path
         style="fill:#231f20;stroke:#231f20;stroke-width:0.25;stroke-miterlimit:10"
         inkscape:connector-curvature="0"
         id="path17"
         d="m 176.5,156.9 2,0 0,2.3 c 0.9,-1.3 2.1,-2.5 4.3,-2.5 2.2,0 3.6,1.2 4.3,2.7 1,-1.5 2.4,-2.7 4.7,-2.7 3.1,0 5,2.1 5,5.4 l 0,8.3 -2,0 0,-7.9 c 0,-2.6 -1.3,-4.1 -3.5,-4.1 -2,0 -3.7,1.5 -3.7,4.2 l 0,7.7 -2,0 0,-7.9 c 0,-2.5 -1.3,-4 -3.5,-4 -2.1,0 -3.7,1.8 -3.7,4.2 l 0,7.7 -2,0 0,-13.4 z"
         class="st0" /><path
         style="fill:#231f20;stroke:#231f20;stroke-width:0.25;stroke-miterlimit:10"
         inkscape:connector-curvature="0"
         id="path19"
         d="m 203.2,167.8 0,2.6 -2,0 0,-19 2,0 0,8.2 c 1.1,-1.6 2.7,-3 5.1,-3 3.2,0 6.4,2.5 6.4,7 l 0,0.1 c 0,4.4 -3.2,7 -6.4,7 -2.4,0 -4,-1.4 -5.1,-2.9 z m 9.5,-4.1 0,0 c 0,-3.2 -2.2,-5.3 -4.7,-5.3 -2.5,0 -4.9,2.1 -4.9,5.2 l 0,0.1 c 0,3.1 2.4,5.2 4.9,5.2 2.6,0 4.7,-2 4.7,-5.2 z"
         class="st0" /><path
         style="fill:#231f20;stroke:#231f20;stroke-width:0.25;stroke-miterlimit:10"
         inkscape:connector-curvature="0"
         id="path21"
         d="m 218.5,156.9 2,0 0,3.5 c 1,-2.2 2.9,-3.8 5.5,-3.7 l 0,2.2 -0.2,0 c -2.9,0 -5.3,2.1 -5.3,6.2 l 0,5.4 -2,0 0,-13.6 z"
         class="st0" /><path
         style="fill:#231f20;stroke:#231f20;stroke-width:0.25;stroke-miterlimit:10"
         inkscape:connector-curvature="0"
         id="path23"
         d="m 234.4,169 c 1.8,0 3.1,-0.8 4.2,-1.9 l 1.2,1.1 c -1.4,1.5 -3,2.5 -5.5,2.5 -3.7,0 -6.7,-2.8 -6.7,-7 0,-3.9 2.7,-7 6.4,-7 4,0 6.3,3.2 6.3,7.1 0,0.2 0,0.4 0,0.7 l -10.7,0 c 0.3,2.8 2.4,4.5 4.8,4.5 z m 3.9,-6.1 c -0.2,-2.4 -1.6,-4.5 -4.3,-4.5 -2.3,0 -4.1,1.9 -4.4,4.5 l 8.7,0 z"
         class="st0" /><path
         style="fill:#231f20;stroke:#231f20;stroke-width:0.25;stroke-miterlimit:10"
         inkscape:connector-curvature="0"
         id="path25"
         d="m 242.7,168.7 1,-1.4 c 1.5,1.1 3.1,1.7 4.7,1.7 1.6,0 2.8,-0.8 2.8,-2.1 l 0,-0.1 c 0,-1.4 -1.6,-1.9 -3.4,-2.4 -2.1,-0.6 -4.4,-1.3 -4.4,-3.8 l 0,-0.1 c 0,-2.3 1.9,-3.8 4.6,-3.8 1.6,0 3.5,0.6 4.8,1.5 l -0.9,1.5 c -1.2,-0.8 -2.7,-1.3 -4,-1.3 -1.6,0 -2.6,0.8 -2.6,2 l 0,0.1 c 0,1.3 1.7,1.8 3.5,2.3 2.1,0.6 4.3,1.4 4.3,3.8 l 0,0.1 c 0,2.5 -2.1,4 -4.8,4 -2,-0.1 -4.1,-0.8 -5.6,-2 z"
         class="st0" /><path
         style="fill:#231f20"
         inkscape:connector-curvature="0"
         id="path27"
         d="m 263.9,161.3 0,0 c 0,-5.2 4,-9.5 9.5,-9.5 5.6,0 9.5,4.2 9.5,9.4 l 0,0.1 c 0,5.1 -4,9.4 -9.5,9.4 -5.5,0 -9.5,-4.2 -9.5,-9.4 z m 15.6,0 0,0 c 0,-3.6 -2.6,-6.5 -6.2,-6.5 -3.6,0 -6.1,2.9 -6.1,6.4 l 0,0.1 c 0,3.5 2.6,6.5 6.2,6.5 3.6,0 6.1,-2.9 6.1,-6.5 z"
         class="st1" /><path
         style="fill:#231f20"
         inkscape:connector-curvature="0"
         id="path29"
         d="m 288.9,168.2 0,2.1 -3.1,0 0,-19 3.1,0 0,7.5 c 1,-1.4 2.4,-2.6 4.7,-2.6 3.2,0 6.4,2.6 6.4,7.1 l 0,0.1 c 0,4.5 -3.1,7.1 -6.4,7.1 -2.3,0.2 -3.7,-1 -4.7,-2.3 z m 7.9,-4.7 0,0 c 0,-2.7 -1.8,-4.4 -3.9,-4.4 -2.1,0 -4,1.8 -4,4.4 l 0,0.1 c 0,2.7 1.9,4.4 4,4.4 2.1,-0.1 3.9,-1.8 3.9,-4.5 z"
         class="st1" /><path
         style="fill:#231f20"
         inkscape:connector-curvature="0"
         id="path31"
         d="m 302.5,168.6 1.4,-2.1 c 1.5,1.1 3.1,1.7 4.5,1.7 1.4,0 2.1,-0.6 2.1,-1.5 l 0,-0.1 c 0,-1.1 -1.5,-1.4 -3.1,-1.9 -2,-0.6 -4.3,-1.4 -4.3,-4 l 0,-0.1 c 0,-2.6 2.2,-4.2 4.9,-4.2 1.7,0 3.6,0.6 5,1.6 l -1.2,2.2 c -1.3,-0.8 -2.7,-1.3 -3.9,-1.3 -1.2,0 -1.9,0.6 -1.9,1.4 l 0,0.1 c 0,1 1.5,1.4 3.1,1.9 2,0.6 4.3,1.5 4.3,4 l 0,0.1 c 0,2.9 -2.2,4.3 -5.1,4.3 -2,-0.1 -4.1,-0.8 -5.8,-2.1 z"
         class="st1" /><path
         style="fill:#231f20"
         inkscape:connector-curvature="0"
         id="path33"
         d="m 315.7,163.6 0,0 c 0,-4 2.8,-7.2 6.7,-7.2 4.4,0 6.6,3.4 6.6,7.4 0,0.3 0,0.6 -0.1,0.9 l -10.1,0 c 0.3,2.2 1.9,3.5 4,3.5 1.5,0 2.6,-0.6 3.7,-1.6 l 1.8,1.6 c -1.3,1.6 -3.1,2.6 -5.6,2.6 -3.9,-0.1 -7,-3 -7,-7.2 z m 10.2,-1 c -0.2,-2 -1.4,-3.6 -3.5,-3.6 -1.9,0 -3.3,1.5 -3.6,3.6 l 7.1,0 z"
         class="st1" /><path
         style="fill:#231f20"
         inkscape:connector-curvature="0"
         id="path35"
         d="m 333.1,156.7 3.1,0 0,3.1 c 0.9,-2.1 2.4,-3.5 4.9,-3.4 l 0,3.3 -0.2,0 c -2.8,0 -4.7,1.8 -4.7,5.4 l 0,5.2 -3.1,0 0,-13.6 z"
         class="st1" /><path
         style="fill:#231f20"
         inkscape:connector-curvature="0"
         id="path37"
         d="m 342.9,156.7 3.4,0 3.7,10.1 3.7,-10.1 3.3,0 -5.6,13.8 -2.8,0 -5.7,-13.8 z"
         class="st1" /><path
         style="fill:#231f20"
         inkscape:connector-curvature="0"
         id="path39"
         d="m 367.8,170.4 0,-1.7 c -0.9,1.1 -2.4,2 -4.4,2 -2.6,0 -4.9,-1.5 -4.9,-4.2 l 0,-0.1 c 0,-3 2.4,-4.5 5.6,-4.5 1.7,0 2.7,0.2 3.8,0.6 l 0,-0.3 c 0,-1.9 -1.2,-2.9 -3.4,-2.9 -1.5,0 -2.7,0.3 -3.9,0.9 l -0.9,-2.5 c 1.5,-0.7 3,-1.1 5.2,-1.1 4.1,0 6,2.1 6,5.8 l 0,8.1 -3.1,0 z m 0.1,-5.8 c -0.8,-0.3 -1.9,-0.5 -3.1,-0.5 -2,0 -3.1,0.8 -3.1,2.1 l 0,0.1 c 0,1.3 1.2,2 2.7,2 2.1,0 3.6,-1.2 3.6,-2.9 l 0,-0.8 z"
         class="st1" /><path
         style="fill:#231f20"
         inkscape:connector-curvature="0"
         id="path41"
         d="m 375.6,166.6 0,-7.2 -1.7,0 0,-2.7 1.7,0 0,-3.8 3.1,0 0,3.8 3.7,0 0,2.7 -3.7,0 0,6.7 c 0,1.2 0.6,1.7 1.7,1.7 0.7,0 1.3,-0.2 2,-0.5 l 0,2.6 c -0.8,0.4 -1.7,0.7 -2.8,0.7 -2.4,0 -4,-1 -4,-4 z"
         class="st1" /><path
         style="fill:#231f20"
         inkscape:connector-curvature="0"
         id="path43"
         d="m 384.8,163.6 0,0 c 0,-4 3.1,-7.2 7.3,-7.2 4.2,0 7.3,3.2 7.3,7.1 l 0,0.1 c 0,3.9 -3.1,7.2 -7.4,7.2 -4.1,-0.1 -7.2,-3.3 -7.2,-7.2 z m 11.5,0 0,0 c 0,-2.5 -1.7,-4.5 -4.2,-4.5 -2.5,0 -4.1,2 -4.1,4.4 l 0,0.1 c 0,2.4 1.7,4.4 4.2,4.4 2.5,0 4.1,-2 4.1,-4.4 z"
         class="st1" /><path
         style="fill:#231f20"
         inkscape:connector-curvature="0"
         id="path45"
         d="m 403,156.7 3.1,0 0,3.1 c 0.9,-2.1 2.4,-3.5 4.9,-3.4 l 0,3.3 -0.2,0 c -2.8,0 -4.7,1.8 -4.7,5.4 l 0,5.2 -3.1,0 0,-13.6 z"
         class="st1" /><path
         style="fill:#231f20"
         inkscape:connector-curvature="0"
         id="path47"
         d="m 413.7,173.8 1.1,-2.3 c 0.6,0.3 1.2,0.5 1.8,0.5 0.9,0 1.4,-0.4 2,-1.6 l -5.7,-13.7 3.4,0 3.9,10.2 3.6,-10.2 3.3,0 -5.5,14.1 c -1.1,2.8 -2.3,3.8 -4.5,3.8 -1.4,0 -2.4,-0.3 -3.4,-0.8 z"
         class="st1" /></g><g
       transform="translate(-92.675,18.600002)"
       id="g49"><g
         id="g51"><path
           style="fill:#ee4023"
           inkscape:connector-curvature="0"
           id="path53"
           d="m 268.6,73 4.5,0 0,55.9 35.2,0 0,4.1 -39.7,0 0,-60 z"
           class="st2" /><path
           style="fill:#ee4023"
           inkscape:connector-curvature="0"
           id="path55"
           d="m 308.7,103.2 0,-0.2 c 0,-17 12.7,-31 30,-31 10.7,0 17.1,3.9 23.3,9.6 l -3.2,3.3 c -5.2,-5.1 -11.2,-8.8 -20.2,-8.8 -14.4,0 -25.3,11.7 -25.3,26.8 l 0,0.2 c 0,15.2 11.1,27 25.4,27 8.7,0 14.6,-3.3 20.7,-9.3 l 3,2.9 c -6.3,6.3 -13.2,10.5 -23.8,10.5 -17.2,-0.2 -29.9,-13.8 -29.9,-31 z"
           class="st2" /></g></g><path
       style="fill:#a5cd39"
       inkscape:connector-curvature="0"
       id="path57"
       d="m 320.225,94.100002 c 5.5,2.8 10,7.199998 13,12.499998 l -17.2,5 4.2,-17.499998 z"
       class="st3" /><g
       transform="translate(-92.675,18.600002)"
       id="g59"><defs
         id="defs61"><path
           inkscape:connector-curvature="0"
           d="m 409.3,93.8 c -6.9,-6.8 -11.1,-14.7 -11.7,-21 -7.7,0.3 -15.3,3.4 -21.1,9.3 -12,12.3 -11.8,32.1 0.5,44.1 12.3,12 32.1,11.8 44.1,-0.5 5.7,-5.8 8.6,-13.3 8.9,-20.8 -6.2,-0.6 -13.9,-4.5 -20.7,-11.1 z"
           id="SVGID_1_" /></defs><clipPath
         id="SVGID_2_"><use
           height="100%"
           width="100%"
           y="0"
           x="0"
           id="use65"
           style="overflow:visible"
           xlink:href="#SVGID_1_" /></clipPath><g
         clip-path="url(#SVGID_2_)"
         id="g67"
         class="st4"><g
           id="g69"><g
             id="g71"><path
               style="fill:#00adee"
               inkscape:connector-curvature="0"
               id="path73"
               d="m 409.3,93.8 c -6.9,-6.8 -11.1,-14.7 -11.7,-21 -7.7,0.3 -15.3,3.4 -21.1,9.3 -12,12.3 -11.8,32.1 0.5,44.1 12.3,12 32.1,11.8 44.1,-0.5 5.7,-5.8 8.6,-13.3 8.9,-20.8 -6.2,-0.6 -13.9,-4.5 -20.7,-11.1 z"
               class="st5" /></g><line
             style="fill:none;stroke:#ffffff;stroke-width:1.5;stroke-miterlimit:10"
             id="line75"
             y2="129"
             x2="373.5"
             y1="89.400002"
             x1="413.10001"
             class="st6" /></g></g><path
         style="fill:none;stroke:#ffffff;stroke-width:1.5;stroke-miterlimit:10"
         inkscape:connector-curvature="0"
         clip-path="url(#SVGID_2_)"
         id="path77"
         d="m 420.7,81.7 c 0,0 -16,-8 -34.7,10.7 -18.7,18.7 -9.3,33.5 -9.3,33.5"
         class="st7" /><path
         style="fill:none;stroke:#ffffff;stroke-width:1.5;stroke-miterlimit:10"
         inkscape:connector-curvature="0"
         clip-path="url(#SVGID_2_)"
         id="path79"
         d="m 365.1,102.8 c 6.2,0.8 14.2,3.9 22.8,12.6 8.3,8.3 11.2,15.8 11.9,21.6"
         class="st7" /><path
         style="fill:none;stroke:#ffffff;stroke-width:1.5;stroke-miterlimit:10"
         inkscape:connector-curvature="0"
         clip-path="url(#SVGID_2_)"
         id="path81"
         d="m 421,82 c 0,0 8,16 -10.7,34.7 -18.7,18.7 -33.5,9.3 -33.5,9.3"
         class="st7" /><line
         style="fill:none;stroke:#ffffff;stroke-width:1.5;stroke-miterlimit:10"
         clip-path="url(#SVGID_2_)"
         id="line83"
         y2="127.7"
         x2="421.89999"
         y1="81.400002"
         x1="375.60001"
         class="st7" /></g></g></svg>